<?xml version="1.0" encoding="UTF-8"?>
<svg id="Layer_1" data-name="Layer 1" xmlns="http://www.w3.org/2000/svg" viewBox="0 0 1000 401.13">
  <defs>
    <style>
      .cls-1 {
        fill: #fff;
      }

      .cls-2 {
        fill: #de5216;
      }
    </style>
  </defs>
  <polygon class="cls-1" points="178.41 129.23 285.83 129.23 285.83 129.17 342.16 129.17 445.52 25.81 124.29 25.81 20.94 129.17 178.41 129.17 178.41 129.23"/>
  <polygon class="cls-2" points="819.37 127.78 819.37 127.71 875.71 127.71 979.06 24.36 657.84 24.36 657.84 24.36 656.85 24.36 656.85 24.35 506.15 24.35 233.2 297.75 309.04 373.72 406.99 275.61 564.31 275.61 564.31 275.68 671.73 275.68 671.73 275.61 728.06 275.61 831.42 172.26 510.19 172.26 554.67 127.71 711.96 127.71 711.96 127.78 819.37 127.78"/>
  <polygon class="cls-1" points="147.34 172.26 73.55 172.26 20.94 224.96 20.94 376.9 198.71 198.84 198.72 198.85 225.2 172.32 147.34 172.32 147.34 172.26"/>
</svg>